<svg xmlns="http://www.w3.org/2000/svg" data-name="Layer 1" viewBox="0 0 512 512" id="blood"><path d="M279.91,451.9a271.92,271.92,0,0,1-69.68-9.23c-56.93-15.1-105.81-47.06-137.65-90-32.24-43.48-43.22-93-30.9-139.41s46.38-84,95.94-105.76c48.93-21.5,107.22-25,164.15-9.93s105.81,47.06,137.65,90c32.25,43.47,43.22,93,30.91,139.41s-46.39,84-95.95,105.76C345.43,445.47,313.2,451.9,279.91,451.9ZM232.07,104.44c-31.06,0-61.08,6-88,17.8C99.1,142,68.25,175.8,57.21,217.4s-1,86.24,28.28,125.71c29.68,40,75.44,69.85,128.86,84s108,10.94,153.57-9.1c45-19.77,75.83-53.56,86.87-95.16s1-86.25-28.28-125.71c-29.68-40-75.44-69.86-128.86-84h0A256.11,256.11,0,0,0,232.07,104.44Z"></path><path d="M310.92 311.07a249.78 249.78 0 01-63.46-8.73c-75.09-19.92-125.72-66.4-115.27-105.82 5.26-19.81 24.74-34.1 54.85-40.23a8 8 0 113.2 15.75c-23.46 4.78-39 15.2-42.51 28.6s4.74 30.13 22.75 45.91c19.78 17.33 48.58 31.63 81.1 40.25S316.2 297.29 342 292c23.46-4.78 38.95-15.2 42.51-28.6 4.67-17.62-11-40.36-40.85-59.34a8 8 0 018.62-13.57c36.54 23.23 54.4 52 47.77 77C392.66 295.29 357.34 311.07 310.92 311.07zM273.07 391.51a56.4 56.4 0 01-14.4-1.93C237.51 384 224 368.19 227.81 353.67c2-7.56 8.45-13.45 17.69-16.15 8-2.33 17.51-2.24 26.91.25s17.75 7.15 23.5 13.12c6.68 6.93 9.36 15.24 7.36 22.79C300.32 384.81 288.12 391.51 273.07 391.51zm-15.16-39.6a28.27 28.27 0 00-7.89 1c-3.66 1.07-6.15 2.88-6.67 4.84-1.12 4.22 5.9 12.65 19.44 16.25s23.82-.25 24.94-4.48c.52-2-.75-4.77-3.39-7.51-3.69-3.83-9.54-7-16-8.74h0A40.83 40.83 0 00257.91 351.91zM350.12 402.21c-11.51 0-20.91-5.39-23.13-14.18-1.51-6 .6-12.46 5.8-17.72a39.08 39.08 0 0136.54-9.23c7.07 2.16 12 6.84 13.51 12.84s-.59 12.46-5.79 17.73A36.91 36.91 0 01360 401 40.22 40.22 0 01350.12 402.21zm-7.53-18.12c.67 1 5.7 3.23 13.44 1.28s11.12-6.29 11.22-7.51c-.67-1-5.71-3.23-13.44-1.28h0C346.08 378.54 342.69 382.87 342.59 384.09zm0 .06h0zm9.25-15.36h0zM122.85 327.25c-5.33 0-10.58-2.7-14.71-7.63a36.85 36.85 0 01-7.64-17.89c-2.45-16 4.57-29.84 16-31.6s22.29 9.38 24.74 25.34-4.57 29.84-16 31.6A16.12 16.12 0 01122.85 327.25zM118.93 286c-1.08.57-3.75 5.38-2.54 13.26s5.2 11.66 6.4 11.88c1.09-.57 3.76-5.37 2.55-13.26h0C124.13 290 120.14 286.25 118.93 286z"></path><path d="M220.19 385.78c-11.48 0-24.36-8.83-32.57-23.47-10.71-19.09-8.82-39.81 4.28-47.15s31.76 1.85 42.47 20.94 8.82 39.8-4.29 47.15A20 20 0 01220.19 385.78zM202 328.68a4.49 4.49 0 00-2.19.5c-3.81 2.14-5 13 1.88 25.27s16.77 16.92 20.58 14.78 5-13.05-1.88-25.27C214.56 333.63 206.58 328.68 202 328.68zM77.33 101.54c-18.17 0-31.65-7.61-37.72-22.34-9.9-24 6.48-47.55 43.8-62.93C100.73 9.13 114.87 6.09 126.64 7c15.3 1.14 26.44 9.13 32.19 23.11 9.75 23.67-7 47.78-43.8 62.93C101.14 98.73 88.37 101.54 77.33 101.54zM122.46 23c-7.76 0-18.35 2.17-32.92 8.17-13.46 5.55-43.81 20.73-35.07 42 7.14 17.33 32.8 14 54.44 5.07S151.11 53.54 144 36.2C142.36 32.28 138.51 23 122.46 23z"></path><path d="M85.61 64.19a8 8 0 01-3.07-15.47L108 38.24a8 8 0 016.12 14.86L88.67 63.58A7.92 7.92 0 0185.61 64.19zM440.1 136.67A35 35 0 01421 130.55c-9-5.89-17.53-15.89-24.59-28.92S385.59 76 385.57 65.31c0-13.2 5.73-23.61 16.25-29.3 10.88-5.89 22.52-5.08 33.65 2.34 8.71 5.81 17.08 15.85 24.22 29 21.69 40.08 9.05 57.8-5.38 65.61A29.65 29.65 0 01440.1 136.67zM416.49 48.22a14.51 14.51 0 00-7 1.93c-5.29 2.86-7.85 7.81-7.83 15.11 0 7.92 3.19 18.11 8.93 28.71s12.53 18.74 19.23 23.11c6.15 4 11.67 4.59 16.86 1.78 4.78-2.59 17.49-9.47-1.11-43.82h0c-5.89-10.89-12.46-19-19-23.31C422.62 49.11 419.28 48.22 416.49 48.22z"></path><path d="M436.55 101.58a8 8 0 01-7.07-4.22l-10.94-20.2a8 8 0 0114.14-7.65l10.94 20.2a8 8 0 01-7.07 11.87zM140.17 505.24c-9.53 0-20.61-2.75-32.62-8.35-12.9-6-23-13.52-29.07-21.72-7.6-10.19-9.11-21.56-4.24-32 5-10.66 14.7-16.89 27.39-17.53 10-.5 22.18 2.43 35.18 8.49h0c13.73 6.4 23.32 13.19 29.3 20.75 8 10.09 9.36 21.49 4 33S154.12 505.24 140.17 505.24zM104 441.65c-.51 0-1 0-1.52 0-9 .45-12.07 4.93-13.63 8.26s-2.86 8.34 2.56 15.61c4.47 6 12.63 11.94 23 16.76 15.39 7.18 35.42 11.15 41.21-1.26 2.76-5.93 2.13-10.93-2.05-16.21-4.33-5.48-12.23-10.91-23.48-16.16h0C120.1 444.07 111.13 441.65 104 441.65z"></path><path d="M133.79,475.64a7.89,7.89,0,0,1-3.39-.76l-19.83-9.24a8,8,0,1,1,6.8-14.57l19.82,9.24a8,8,0,0,1-3.4,15.33Z"></path></svg>