<svg xmlns="http://www.w3.org/2000/svg" viewBox="0 0 100 100" id="Compass"><path d="M50 5C25.2 5 5 25.2 5 50s20.2 45 45 45 45-20.2 45-45S74.8 5 50 5zm0 86C27.4 91 9 72.6 9 50S27.4 9 50 9s41 18.4 41 41-18.4 41-41 41zm0-76c-19.3 0-35 15.7-35 35s15.7 35 35 35 35-15.7 35-35-15.7-35-35-35zm2 65.9V75c0-1.1-.9-2-2-2s-2 .9-2 2v5.9c-15.5-1-27.9-13.4-28.9-28.9H25c1.1 0 2-.9 2-2s-.9-2-2-2h-5.9c1-15.5 13.4-27.9 28.9-28.9V25c0 1.1.9 2 2 2s2-.9 2-2v-5.9c15.5 1 27.9 13.4 28.9 28.9H75c-1.1 0-2 .9-2 2s.9 2 2 2h5.9c-1 15.5-13.4 27.9-28.9 28.9zm14.1-49.7L42.8 41.8l-.1.1c-.1.1-.2.1-.3.2-.1 0-.1.1-.2.2l-.2.2c-.1.1-.1.2-.2.3l-.1.1-10.5 23.2c-.3.8-.2 1.7.4 2.2.4.5.9.7 1.4.7.3 0 .6-.1.8-.2l23.3-10.6s.1 0 .1-.1c.1-.1.2-.1.3-.2.1 0 .1-.1.2-.2l.2-.2c.1-.1.1-.2.2-.3 0 0 0-.1.1-.1l10.6-23.3c.3-.8.2-1.7-.4-2.2-.6-.6-1.5-.7-2.3-.4zm-29 31.7L44.3 47l8.6 8.6-15.8 7.3zm18.6-10-8.6-8.6L63 37.1l-7.3 15.8z" fill="#000000" class="color000000 svgShape"></path></svg>