<svg xmlns="http://www.w3.org/2000/svg" data-name="Layer 1" viewBox="0 0 64 64" id="sickle"><path fill="none" stroke="#000" stroke-linecap="round" stroke-linejoin="round" stroke-width="3" d="M40.26 37.88v20.38a2.88 2.88 0 0 1-3 2.74h-.72a2.88 2.88 0 0 1-3-2.74V38l.1-.1zm-6.66 0-.1.1v-.1z"></path><path fill="none" stroke="#000" stroke-linecap="round" stroke-linejoin="round" stroke-width="3" d="M49.62 22.33A19.46 19.46 0 0 1 40.26 39v-1.1H33.6a15.53 15.53 0 0 0 4.57-11.13c0-8.33-6.28-15.08-14-15.08-6.45 0-11.86 4.68-13.5 11.06v-.4a19.5 19.5 0 0 1 39 0ZM40.26 43.12H33.5"></path></svg>