<svg xmlns="http://www.w3.org/2000/svg" viewBox="0 0 64 64" id="blood-cell"><g data-name="white blood cell"><path d="M32,61a4,4,0,0,1-4-4V54.65a22.68,22.68,0,0,1-9.19-3.81l-1.66,1.67a4,4,0,0,1-6.83-2.83,4.06,4.06,0,0,1,1.17-2.83l1.67-1.66A22.68,22.68,0,0,1,9.35,36H7a4,4,0,1,1,0-8H9.35a22.68,22.68,0,0,1,3.81-9.19l-1.67-1.66a4,4,0,0,1,2.83-6.83,4.06,4.06,0,0,1,2.83,1.17l1.66,1.67A22.68,22.68,0,0,1,28,9.35V7a4,4,0,1,1,8,0V9.35a22.68,22.68,0,0,1,9.19,3.81l1.66-1.67a4,4,0,0,1,5.66,5.66l-1.67,1.66A22.68,22.68,0,0,1,54.65,28H57a4,4,0,0,1,0,8H54.65a22.68,22.68,0,0,1-3.81,9.19l1.67,1.66a4,4,0,0,1-5.66,5.66l-1.66-1.67A22.68,22.68,0,0,1,36,54.65V57A4,4,0,0,1,32,61ZM18.71,48.53a1.06,1.06,0,0,1,.61.2,20.68,20.68,0,0,0,9.81,4.07,1,1,0,0,1,.87,1V57a2,2,0,0,0,4,0V53.79a1,1,0,0,1,.87-1,20.68,20.68,0,0,0,9.81-4.07,1,1,0,0,1,1.32.09l2.27,2.27a2,2,0,1,0,2.82-2.82L48.82,46a1,1,0,0,1-.09-1.32,20.68,20.68,0,0,0,4.07-9.81,1,1,0,0,1,1-.87H57a2,2,0,0,0,0-4H53.79a1,1,0,0,1-1-.87,20.68,20.68,0,0,0-4.07-9.81A1,1,0,0,1,48.82,18l2.27-2.27a2,2,0,1,0-2.82-2.82L46,15.18a1,1,0,0,1-1.32.09,20.68,20.68,0,0,0-9.81-4.07,1,1,0,0,1-.87-1V7a2,2,0,0,0-2-2,2,2,0,0,0-2,2v3.21a1,1,0,0,1-.87,1,20.68,20.68,0,0,0-9.81,4.07A1,1,0,0,1,18,15.18l-2.27-2.27a2,2,0,0,0-2.82,0,2,2,0,0,0,0,2.82L15.18,18a1,1,0,0,1,.09,1.32,20.68,20.68,0,0,0-4.07,9.81,1,1,0,0,1-1,.87H7a2,2,0,0,0-2,2,2,2,0,0,0,2,2h3.21a1,1,0,0,1,1,.87,20.68,20.68,0,0,0,4.07,9.81A1,1,0,0,1,15.18,46l-2.27,2.27a2,2,0,0,0,0,2.82,2,2,0,0,0,2.82,0L18,48.82A1,1,0,0,1,18.71,48.53Z"></path><path d="M30.48,49.19c-2.88,0-6.94-2.16-10.72-5.95-5.24-5.24-7.37-11-5-13.43s8.19-.29,13.43,4.95h0c5.24,5.24,7.37,11,4.95,13.43A3.66,3.66,0,0,1,30.48,49.19ZM17.53,30.79a1.84,1.84,0,0,0-1.31.43c-1.33,1.34.5,6.16,5,10.61s9.27,6.28,10.61,5-.5-6.16-5-10.61h0C23.33,32.68,19.61,30.79,17.53,30.79Z"></path><path d="M24 41.06a1 1 0 0 1-.69-.28l-.55-.54A26.37 26.37 0 0 1 18.64 35a1 1 0 1 1 1.72-1 24.42 24.42 0 0 0 3.81 4.84l.52.5A1 1 0 0 1 24 41.06zM33 25c-6 0-12-1.72-12-5s6-5 12-5 12 1.72 12 5S39 25 33 25zm0-8c-6 0-10 1.81-10 3s4 3 10 3 10-1.81 10-3S39 17 33 17z"></path><path d="M38 21.65a.91.91 0 0 1-.23 0A25.36 25.36 0 0 0 32 21a1 1 0 0 1 0-2 27.06 27.06 0 0 1 6.24.68 1 1 0 0 1 .74 1.2A1 1 0 0 1 38 21.65zM37.33 41a3.28 3.28 0 0 1-2.4-.89c-2-2-.5-6.57 3.53-10.61s8.6-5.55 10.61-3.53.5 6.57-3.53 10.61C42.71 39.37 39.61 41 37.33 41zM46.67 27a5.28 5.28 0 0 0-1.81.39 15.16 15.16 0 0 0-5 3.45c-3.45 3.45-4.4 6.91-3.54 7.78s4.33-.09 7.78-3.54 4.4-6.91 3.54-7.78A1.41 1.41 0 0 0 46.67 27z"></path><path d="M41.17,34.17a1,1,0,0,1-.71-.29,1,1,0,0,1,0-1.42,18.47,18.47,0,0,1,4.42-3.32,1,1,0,0,1,.93,1.77,16.6,16.6,0,0,0-3.93,3A1,1,0,0,1,41.17,34.17Z"></path></g></svg>