<?xml version="1.0" encoding="UTF-8" standalone="no"?>
<svg
   viewBox="0 0 32 32"
   id="BloodDrop"
   version="1.1"
   xmlns="http://www.w3.org/2000/svg"
   xmlns:svg="http://www.w3.org/2000/svg">
  <defs
     id="defs2" />
  <g
     id="g12">
    <path
       d="m 9.6761777,17.814404 a 0.43260143,0.43260143 0 0 0 -0.216781,0.0567 0.43260143,0.43260143 0 0 0 -0.1584168,0.158417 l -3.3300884,5.684662 a 4.5272244,4.5272244 0 0 0 -0.3268389,0.65868 4.5272244,4.5272244 0 0 0 -0.2167809,0.702037 4.5272244,4.5272244 0 0 0 -0.1000527,0.728717 4.5272244,4.5272244 0 0 0 0.02001,0.73372 4.5272244,4.5272244 0 0 0 0.1384062,0.722048 4.5272244,4.5272244 0 0 0 0.253467,0.690363 4.5272244,4.5272244 0 0 0 0.3601898,0.63867 4.5272244,4.5272244 0 0 0 0.4602426,0.573636 4.3914077,4.3914077 0 0 0 0.568633,0.483588 4.3914077,4.3914077 0 0 0 0.642005,0.378533 4.3914077,4.3914077 0 0 0 0.6987016,0.266808 4.3914077,4.3914077 0 0 0 0.7320524,0.143409 4.3914077,4.3914077 0 0 0 0.7453929,0.01667 4.3914077,4.3914077 0 0 0 0.7387225,-0.10839 4.3914077,4.3914077 0 0 0 0.708708,-0.233457 4.3914077,4.3914077 0 0 0 0.65868,-0.348517 4.3914077,4.3914077 0 0 0 0.591978,-0.456907 4.3914077,4.3914077 0 0 0 0.505266,-0.548622 c 0.06068,0.02798 0.120979,0.05312 0.181762,0.07504 0.06078,0.02192 0.121075,0.04063 0.181763,0.0567 0.06069,0.01607 0.121369,0.02961 0.181763,0.04002 0.0604,0.01042 0.120196,0.01668 0.180094,0.02168 0.0599,0.005 0.120893,0.0085 0.180096,0.0084 0.0592,-2.21e-4 0.116785,-0.0031 0.175092,-0.0084 0.05831,-0.0052 0.116214,-0.01333 0.173425,-0.02334 0.05721,-0.01002 0.114177,-0.02209 0.17009,-0.03669 0.05591,-0.0146 0.110671,-0.03106 0.165086,-0.05002 0.05441,-0.01897 0.109036,-0.04024 0.161752,-0.06337 0.05271,-0.02313 0.104264,-0.04964 0.155082,-0.0767 0.05082,-0.02707 0.09969,-0.05591 0.148412,-0.08671 0.04872,-0.0308 0.09699,-0.06239 0.143409,-0.09672 0.04642,-0.03433 0.09115,-0.07075 0.135071,-0.10839 0.04392,-0.03764 0.08718,-0.07766 0.1284,-0.118396 0.04122,-0.04073 0.08175,-0.08144 0.120064,-0.125067 0.03832,-0.04362 0.07484,-0.08877 0.110058,-0.135071 0.03521,-0.04629 0.06814,-0.09465 0.100052,-0.143409 0.03192,-0.04876 0.06164,-0.09907 0.09005,-0.150079 0.02841,-0.051 0.05533,-0.102033 0.08004,-0.155081 0.02471,-0.05305 0.04757,-0.106877 0.06837,-0.161753 0.02081,-0.05487 0.04,-0.111931 0.0567,-0.168421 0.0167,-0.05649 0.03096,-0.113863 0.04336,-0.171757 0.0124,-0.0579 0.02213,-0.116007 0.03002,-0.175093 0.0079,-0.05909 0.01349,-0.118361 0.01667,-0.178428 0.0032,-0.06006 0.005,-0.120929 0.0033,-0.181761 -0.0017,-0.06083 -0.0065,-0.122041 -0.01334,-0.183431 -0.0068,-0.06139 -0.01621,-0.123364 -0.02835,-0.185097 -0.01213,-0.06174 -0.02738,-0.123232 -0.04502,-0.185098 -0.01765,-0.06187 -0.03835,-0.123311 -0.0617,-0.185098 -0.02335,-0.06179 -0.04912,-0.123602 -0.07838,-0.185096 -0.02926,-0.0615 -0.06135,-0.122439 -0.09672,-0.183431 l -1.559124,-2.66141 a 0.43260143,0.43260143 0 0 0 -0.158417,-0.158417 0.43260143,0.43260143 0 0 0 -0.21678,-0.05836 0.43260143,0.43260143 0 0 0 -0.216781,0.05836 0.43260143,0.43260143 0 0 0 -0.158417,0.158417 l -0.426892,0.735388 -3.22003,-5.479554 A 0.43260143,0.43260143 0 0 0 9.8912911,17.8711 0.43260143,0.43260143 0 0 0 9.6761777,17.8144 Z M 6.9430706,25.902 c 0.034727,0 0.068975,0.0033 0.1017202,0.01001 0.032746,0.0067 0.063292,0.01562 0.093383,0.02835 0.030091,0.01273 0.059951,0.02861 0.086712,0.04669 0.026761,0.01808 0.050615,0.03894 0.073372,0.0617 0.022758,0.02276 0.04362,0.04828 0.0617,0.07504 0.01808,0.02676 0.033964,0.05496 0.046691,0.08505 0.012727,0.03009 0.021648,0.0623 0.028348,0.09505 0.0067,0.03274 0.011673,0.06532 0.011673,0.100052 -8.88e-4,0.06734 -2.21e-4,0.13413 0.005,0.200106 0.00523,0.06598 0.013929,0.132453 0.025013,0.19677 0.011085,0.06432 0.024995,0.12774 0.041689,0.1901 0.016693,0.06236 0.036316,0.123323 0.058364,0.183431 0.022049,0.06011 0.04622,0.119202 0.073372,0.176759 0.027152,0.05756 0.058045,0.113712 0.090047,0.168423 0.032002,0.05471 0.06512,0.106851 0.1017203,0.158417 0.0366,0.05157 0.075783,0.101953 0.1167282,0.150079 0.040946,0.04813 0.08503,0.09402 0.1300686,0.138406 0.045038,0.04439 0.091196,0.08805 0.1400738,0.128401 0.048878,0.04035 0.099281,0.07737 0.1517466,0.113393 0.052466,0.03602 0.1076193,0.07033 0.1634195,0.10172 0.0558,0.03139 0.1128749,0.06024 0.1717572,0.08671 0.058882,0.02647 0.1183833,0.05046 0.1800949,0.0717 0.061712,0.02124 0.1258117,0.03931 0.1901002,0.05503 0.064288,0.01573 0.1301578,0.02845 0.1967704,0.03835 0.041919,0.0029 0.080565,0.01008 0.1167281,0.02001 0.036163,0.0099 0.069577,0.02407 0.1000528,0.04002 0.030477,0.01596 0.056852,0.03404 0.08171,0.05503 0.024858,0.02099 0.047393,0.04499 0.066702,0.07004 0.019309,0.02505 0.036198,0.05193 0.050027,0.08004 0.013829,0.02812 0.024934,0.0565 0.033351,0.08671 0.00842,0.03021 0.013602,0.06207 0.016675,0.09338 0.00307,0.03132 0.00387,0.06194 0.00166,0.09338 -0.0022,0.03144 -0.0076,0.0628 -0.015008,0.09338 -0.0074,0.03058 -0.017473,0.06131 -0.030016,0.09005 -0.012543,0.02874 -0.027413,0.05579 -0.045023,0.08171 -0.017611,0.02592 -0.037421,0.0496 -0.060031,0.0717 -0.02261,0.02211 -0.047499,0.04271 -0.07504,0.06003 -0.02754,0.01732 -0.057646,0.0318 -0.090048,0.04336 -0.032402,0.01155 -0.066193,0.02021 -0.1033877,0.02502 -0.037195,0.0048 -0.078144,0.0062 -0.1200633,0.0033 H 9.1358864 C 9.0382184,29.554327 8.9416669,29.535327 8.847401,29.512227 8.753135,29.489117 8.661083,29.461697 8.5705885,29.430517 8.4800935,29.399337 8.3918027,29.364287 8.3054487,29.325462 8.2190947,29.286642 8.1354933,29.243102 8.0536493,29.197061 7.9718053,29.151031 7.892155,29.101461 7.8151904,29.04865 7.7382254,28.99584 7.6634553,28.94105 7.5917392,28.881895 7.5200232,28.822745 7.4510616,28.760194 7.3849636,28.69513 7.3188656,28.63007 7.2549741,28.56223 7.1948635,28.49169 7.1347525,28.42115 7.0785277,28.347157 7.0247738,28.271573 6.9710198,28.195993 6.920055,28.11831 6.8730272,28.038117 6.8259992,27.957927 6.7828912,27.875689 6.7429586,27.79132 6.7030256,27.70695 6.6670356,27.620962 6.6345682,27.532851 c -0.032468,-0.08811 -0.062079,-0.178723 -0.086712,-0.270142 -0.024633,-0.09142 -0.045268,-0.184185 -0.061699,-0.278481 -0.01643,-0.09429 -0.028829,-0.19008 -0.036686,-0.286818 -0.00785,-0.09674 -0.01109,-0.194741 -0.010006,-0.293488 1e-7,-0.03472 0.0033,-0.0673 0.010006,-0.100052 0.0067,-0.03274 0.017288,-0.06496 0.030016,-0.09505 0.012727,-0.03009 0.028612,-0.05829 0.046691,-0.08505 0.01808,-0.02676 0.038942,-0.05228 0.0617,-0.07504 0.022758,-0.02275 0.046611,-0.04362 0.073372,-0.0617 0.026761,-0.01807 0.054955,-0.03396 0.085044,-0.04669 0.030091,-0.01273 0.062304,-0.02165 0.09505,-0.02834 0.032746,-0.0067 0.066994,-0.01001 0.1017202,-0.01001 z m 6.3316704,0.37353 c 0.03472,0 0.06898,0.0033 0.101721,0.01001 0.03274,0.0067 0.06329,0.01562 0.09338,0.02835 0.03009,0.01273 0.05995,0.02861 0.08671,0.04669 0.02676,0.01808 0.05061,0.03894 0.07337,0.0617 0.02275,0.02276 0.04363,0.04828 0.0617,0.07504 0.01808,0.02676 0.03396,0.05496 0.04669,0.08505 0.01273,0.03009 0.02332,0.06064 0.03002,0.09338 0.0067,0.03274 0.01001,0.067 0.01001,0.10172 -8.11e-4,0.02018 0.002,0.0403 0.0084,0.05836 0.0063,0.01807 0.01618,0.03393 0.02835,0.04836 0.01217,0.01443 0.02661,0.02742 0.04336,0.03669 0.01674,0.0093 0.035,0.01575 0.05503,0.01834 0.0421,0.0027 0.08203,0.0085 0.118396,0.01834 0.03636,0.0098 0.06937,0.02247 0.100053,0.03835 0.03069,0.01588 0.0583,0.03572 0.08338,0.0567 0.02507,0.02097 0.04717,0.0433 0.06671,0.06837 0.01952,0.02507 0.036,0.05186 0.05002,0.08004 0.01404,0.02818 0.02641,0.05807 0.03502,0.08838 0.0086,0.03031 0.01342,0.06193 0.01668,0.09338 0.0032,0.03145 0.0054,0.06345 0.0033,0.09505 -0.002,0.0316 -0.0078,0.06263 -0.01501,0.09338 -0.0073,0.03076 -0.01757,0.06111 -0.03002,0.09005 -0.01244,0.02894 -0.02748,0.05559 -0.04502,0.08171 -0.01755,0.02613 -0.03745,0.05105 -0.06003,0.07337 -0.02258,0.02233 -0.04748,0.04249 -0.07504,0.06003 -0.02756,0.01754 -0.05758,0.03326 -0.09005,0.04502 -0.03247,0.01176 -0.06774,0.02001 -0.105056,0.02502 -0.03732,0.005 -0.07629,0.0061 -0.118395,0.0033 h -0.07004 c -0.03636,-0.0052 -0.07328,-0.01163 -0.108391,-0.02001 -0.03511,-0.0084 -0.06968,-0.01861 -0.103388,-0.03002 -0.03372,-0.01141 -0.0662,-0.02409 -0.09838,-0.03835 -0.03219,-0.01427 -0.06287,-0.02972 -0.09338,-0.04669 -0.03051,-0.01696 -0.06134,-0.03553 -0.09005,-0.05503 -0.0287,-0.0195 -0.05496,-0.03982 -0.08171,-0.0617 -0.02676,-0.02188 -0.0537,-0.04594 -0.07838,-0.07004 -0.02467,-0.02409 -0.0476,-0.0489 -0.07004,-0.07504 -0.02245,-0.02614 -0.0433,-0.05368 -0.06337,-0.08171 -0.02007,-0.02803 -0.03912,-0.05695 -0.0567,-0.08671 -0.01757,-0.02976 -0.0351,-0.06039 -0.05002,-0.09171 -0.01493,-0.03133 -0.02788,-0.06232 -0.04002,-0.09505 -0.01215,-0.03273 -0.02245,-0.06608 -0.03168,-0.100053 -0.0092,-0.03397 -0.01718,-0.06834 -0.02334,-0.103387 -0.0061,-0.03506 -0.01037,-0.07075 -0.01334,-0.106723 -0.003,-0.03597 -0.0054,-0.07333 -0.005,-0.110059 0,-0.03472 0.005,-0.06898 0.01167,-0.10172 0.0067,-0.03274 0.01563,-0.06329 0.02835,-0.09338 0.01273,-0.03009 0.02861,-0.05829 0.04669,-0.08505 0.01808,-0.02676 0.03894,-0.05228 0.0617,-0.07504 0.02275,-0.02275 0.04661,-0.04362 0.07337,-0.0617 0.02676,-0.01807 0.05662,-0.03396 0.08671,-0.04669 0.03009,-0.01273 0.06064,-0.02165 0.09338,-0.02834 0.03274,-0.0067 0.067,-0.01001 0.10172,-0.01001 z"
       style="stroke-width:0.503025;fill:#ffffff"
       id="path15" />
    <path
       d="m 11.41669,10.256212 c -0.05442,-0.0062 -0.10936,-0.0062 -0.160872,0.0021 -0.05152,0.0083 -0.101409,0.02351 -0.145857,0.04719 -0.04445,0.02368 -0.0826,0.05664 -0.115828,0.09652 -0.03323,0.02658 -0.06212,0.05416 -0.0858,0.08365 -0.02368,0.02949 -0.04296,0.06066 -0.05791,0.09223 -0.01496,0.03157 -0.02512,0.06371 -0.03218,0.09652 -0.007,0.03282 -0.01076,0.06544 -0.01076,0.09867 0,0.03988 0.0071,0.07927 0.01717,0.115828 0.01,0.03656 0.02317,0.06993 0.03646,0.09652 l 2.816326,6.194631 c 0,0 9.39e-4,0.0062 0.0043,0.01287 0.0033,0.0067 0.01032,0.01501 0.02359,0.01501 0.02659,0.02659 0.02704,0.05278 0.05363,0.07937 0,0.0133 0.005,0.0191 0.01501,0.02574 0.01,0.0067 0.02317,0.0146 0.03646,0.02788 l 0.05363,0.05147 c 0.02659,0.02659 0.05277,0.02704 0.07936,0.05363 0,0 0.0084,9.39e-4 0.01501,0.0043 0.0067,0.0033 0.01287,0.01032 0.01287,0.0236 l 6.19463,2.816327 c 0.05317,0.01994 0.108592,0.03453 0.163017,0.04075 0.05442,0.0062 0.107219,0.0041 0.158727,-0.0043 0.05151,-0.0084 0.101409,-0.02351 0.145856,-0.04719 0.04445,-0.02367 0.08474,-0.0545 0.117973,-0.09438 0.03988,-0.03987 0.0707,-0.08481 0.09438,-0.132987 0.02368,-0.04819 0.03887,-0.09911 0.04719,-0.152292 0.0084,-0.05317 0.01054,-0.108186 0.0043,-0.163017 -0.0062,-0.05484 -0.02081,-0.109845 -0.04075,-0.163017 l -2.818451,-6.194622 -0.02574,-0.02788 c -0.02659,-0.02659 -0.02704,-0.05277 -0.05363,-0.07936 0,-0.0133 -0.0072,-0.01909 -0.01717,-0.02574 -0.01,-0.0067 -0.02317,-0.01458 -0.03646,-0.02788 l -0.05363,-0.05147 c -0.02659,-0.02659 -0.05278,-0.02704 -0.07937,-0.05363 l -0.0258,-0.02784 -6.168892,-2.790587 c -0.05317,-0.01994 -0.10645,-0.03238 -0.160871,-0.03861 z"
       style="stroke-width:0.265864;fill:#ffffff"
       id="path10" />
    <path
       d="M 7.7960055,19.927816 8.4352019,18.836033 C 8.4173339,18.798703 8.3946119,18.764273 8.3772929,18.72664 8.2745876,18.503459 8.1812524,18.273644 8.0984491,18.040254 8.0156434,17.806863 7.9436268,17.568506 7.8818082,17.325983 7.8199852,17.083462 7.7671233,16.838698 7.727367,16.58812 7.6876108,16.337542 7.6603302,16.082072 7.6437137,15.824517 h 1.5679628 c 0.03656,0 0.072712,-0.0036 0.1072518,-0.01077 0.034528,-0.0072 0.066892,-0.01867 0.098664,-0.03218 0.031782,-0.0135 0.063927,-0.02803 0.092228,-0.04719 0.028301,-0.01917 0.053121,-0.0424 0.077215,-0.0665 0.024095,-0.02409 0.047333,-0.04891 0.066497,-0.07722 0.019164,-0.0283 0.035835,-0.06046 0.049332,-0.09223 0.013497,-0.03178 0.02292,-0.06414 0.030025,-0.09866 0.00714,-0.03453 0.010763,-0.07069 0.010763,-0.107252 0,-0.03656 -0.00362,-0.07272 -0.010763,-0.107252 -0.00714,-0.03453 -0.016528,-0.06689 -0.030025,-0.09866 -0.013497,-0.03179 -0.030168,-0.06179 -0.049332,-0.09009 -0.019164,-0.0283 -0.042402,-0.05527 -0.066497,-0.07936 -0.024095,-0.02409 -0.048915,-0.04519 -0.077215,-0.06434 -0.028301,-0.01917 -0.060457,-0.03583 -0.092228,-0.04933 -0.031782,-0.0135 -0.064136,-0.02506 -0.098664,-0.03218 -0.034528,-0.0072 -0.070692,-0.01077 -0.1072518,-0.01077 H 7.6437137 c 0.016616,-0.257556 0.043897,-0.510881 0.083654,-0.76146 0.039757,-0.250578 0.092618,-0.497487 0.1544368,-0.740009 0.061818,-0.242512 0.1338372,-0.480869 0.2166406,-0.71426 0.082806,-0.233389 0.1761331,-0.463205 0.2788438,-0.686385 0.1027053,-0.22318 0.2152176,-0.440174 0.3367584,-0.652066 0.1215396,-0.211893 0.2510886,-0.41822 0.390381,-0.617747 C 9.2437214,10.389087 9.3924661,10.195562 9.5484338,10.009477 9.7044015,9.8233919 9.8680633,9.644803 10.039629,9.4732379 10.211194,9.3016727 10.389782,9.1380109 10.575867,8.9820431 10.761953,8.8260754 10.955478,8.6773302 11.155005,8.5380375 11.354533,8.3987446 11.56086,8.269196 11.772753,8.1476556 11.984644,8.0261152 12.201639,7.9136083 12.424819,7.8108977 12.647998,7.708187 12.877814,7.6148568 13.111205,7.5320535 c 0.233389,-0.082803 0.471747,-0.1548219 0.714269,-0.2166404 0.242524,-0.061819 0.489432,-0.1125356 0.740009,-0.1522919 0.250578,-0.039756 0.503904,-0.069182 0.76146,-0.085798 v 1.5679621 c 0,0.036556 0.0036,0.072716 0.01077,0.1072475 0.0072,0.034531 0.01867,0.069034 0.03218,0.100813 0.0135,0.03178 0.02803,0.061788 0.04719,0.090088 0.01917,0.0283 0.0424,0.055269 0.06649,0.079363 0.02409,0.024094 0.05106,0.045187 0.07937,0.064349 0.0283,0.019161 0.05831,0.035832 0.09009,0.049334 0.03179,0.0135 0.06414,0.022915 0.09867,0.030029 0.03453,0.00712 0.07069,0.01073 0.107252,0.01073 0.03656,0 0.07271,-0.00361 0.107251,-0.01073 0.03453,-0.00712 0.06689,-0.016528 0.09866,-0.030029 0.03178,-0.0135 0.06179,-0.030174 0.09009,-0.049334 0.0283,-0.019161 0.05527,-0.040255 0.07937,-0.064349 0.02409,-0.024094 0.04519,-0.051064 0.06434,-0.079363 0.01917,-0.028299 0.03583,-0.058309 0.04933,-0.090088 0.0135,-0.031779 0.02506,-0.066282 0.03218,-0.100813 0.0072,-0.034531 0.01077,-0.070691 0.01077,-0.1072475 V 7.0773889 c 0.257555,0.016616 0.51088,0.046042 0.761459,0.085798 0.250577,0.039756 0.497486,0.090473 0.740009,0.1522919 0.242522,0.061819 0.48088,0.1338371 0.71427,0.2166404 0.23339,0.082803 0.463206,0.1761336 0.686386,0.2788442 0.22318,0.1027107 0.440174,0.2152174 0.652066,0.3367579 0.211892,0.1215404 0.418219,0.251089 0.617747,0.3903819 0.199527,0.1392928 0.393053,0.2880379 0.579138,0.4440056 0.186086,0.1559678 0.364673,0.3196295 0.536238,0.4911948 0.171567,0.1715651 0.335228,0.3501543 0.491196,0.5362394 0.155967,0.186085 0.304712,0.37961 0.444005,0.579137 0.139293,0.199528 0.268842,0.405855 0.390382,0.617748 0.12154,0.211892 0.234047,0.428886 0.336758,0.652065 0.102705,0.223181 0.19604,0.452997 0.278843,0.686386 0.08281,0.233391 0.154823,0.471748 0.216642,0.714271 0.06181,0.242522 0.112535,0.489431 0.152292,0.740009 0.03975,0.250578 0.06917,0.503904 0.0858,0.76146 h -1.567962 c -0.03656,0 -0.07272,0.0036 -0.107253,0.01077 -0.03453,0.0072 -0.06904,0.01867 -0.100815,0.03218 -0.03179,0.0135 -0.06179,0.03018 -0.09009,0.04933 -0.0283,0.01917 -0.05312,0.04025 -0.07722,0.06434 -0.02409,0.02409 -0.04733,0.05106 -0.06649,0.07936 -0.01917,0.0283 -0.03583,0.0583 -0.04933,0.09009 -0.0135,0.03178 -0.02292,0.06414 -0.03003,0.09866 -0.0072,0.03453 -0.01077,0.07069 -0.01077,0.107252 0,0.03656 0.0036,0.07272 0.01077,0.107252 0.0072,0.03453 0.01653,0.06689 0.03003,0.09866 0.0135,0.03179 0.03016,0.06393 0.04933,0.09223 0.01917,0.0283 0.0424,0.05312 0.06649,0.07722 0.02409,0.02409 0.04891,0.04733 0.07722,0.0665 0.0283,0.01917 0.05831,0.03369 0.09009,0.04719 0.03178,0.0135 0.06628,0.02506 0.100815,0.03218 0.03453,0.0072 0.07069,0.01077 0.107253,0.01077 h 1.567962 c -0.01661,0.257554 -0.04604,0.513025 -0.0858,0.763603 -0.03975,0.250578 -0.09047,0.495342 -0.152292,0.737865 -0.06182,0.242522 -0.133837,0.480879 -0.216642,0.71427 -0.08281,0.23339 -0.176133,0.463205 -0.278843,0.686385 -0.102706,0.22318 -0.215218,0.440174 -0.336758,0.652067 -0.12154,0.211892 -0.251089,0.418218 -0.390382,0.617747 -0.139293,0.199527 -0.288038,0.393052 -0.444005,0.579137 -0.155968,0.186086 -0.319629,0.364674 -0.491196,0.53624 -0.171565,0.171564 -0.350152,0.335226 -0.536238,0.491193 -0.186085,0.155969 -0.379611,0.304714 -0.579138,0.444006 -0.199528,0.139294 -0.405855,0.268842 -0.617747,0.390382 -0.211892,0.121542 -0.428886,0.234048 -0.652066,0.336758 -0.22318,0.102705 -0.452996,0.196042 -0.686386,0.278845 -0.23339,0.08281 -0.471748,0.154822 -0.71427,0.21664 -0.242523,0.06181 -0.489432,0.114681 -0.740009,0.154436 -0.250579,0.03975 -0.503904,0.06704 -0.761459,0.08365 v -1.567962 c 0,-0.03656 -0.0036,-0.07271 -0.01077,-0.107251 -0.0072,-0.03453 -0.01867,-0.06689 -0.03218,-0.09866 -0.0135,-0.03178 -0.03017,-0.06179 -0.04933,-0.09009 -0.01917,-0.0283 -0.04025,-0.05527 -0.06434,-0.07937 -0.02409,-0.02409 -0.05106,-0.04733 -0.07937,-0.0665 -0.0283,-0.01917 -0.05831,-0.03368 -0.09009,-0.04719 -0.03178,-0.0135 -0.06414,-0.02506 -0.09866,-0.03218 -0.03453,-0.0072 -0.07069,-0.01077 -0.107251,-0.01077 -0.03656,0 -0.07272,0.0036 -0.107252,0.01077 -0.03453,0.0072 -0.06689,0.01867 -0.09867,0.03218 -0.03178,0.0135 -0.06179,0.02803 -0.09009,0.04719 -0.0283,0.01917 -0.05527,0.0424 -0.07937,0.0665 -0.02409,0.02409 -0.04733,0.05107 -0.06649,0.07937 -0.01917,0.0283 -0.03368,0.05831 -0.04719,0.09009 -0.0135,0.03179 -0.02506,0.06414 -0.03218,0.09866 -0.0072,0.03453 -0.01077,0.07069 -0.01077,0.107251 v 1.488599 l 0.682096,1.16471 c 0.109602,-0.0018 0.219519,-9.39e-4 0.328178,-0.0065 0.158381,-0.008 0.315672,-0.02055 0.47189,-0.03646 0.156217,-0.01591 0.311597,-0.03648 0.465454,-0.06006 0.153859,-0.02358 0.305575,-0.05047 0.456877,-0.08151 0.1513,-0.03103 0.301892,-0.06465 0.45044,-0.102958 0.148548,-0.03831 0.296262,-0.08117 0.441861,-0.126553 0.145598,-0.04538 0.288683,-0.0936 0.431135,-0.145856 0.142453,-0.05225 0.283446,-0.108372 0.422557,-0.167307 0.139112,-0.05894 0.276259,-0.121191 0.411831,-0.186611 0.135573,-0.06542 0.269269,-0.134209 0.401107,-0.205916 0.131839,-0.0717 0.262474,-0.147422 0.390382,-0.22522 0.127907,-0.0778 0.253732,-0.158686 0.377511,-0.242379 0.123781,-0.0837 0.245187,-0.17015 0.364643,-0.25954 0.119456,-0.0894 0.236837,-0.179662 0.351773,-0.274555 0.114936,-0.0949 0.226538,-0.19366 0.336757,-0.293858 0.110221,-0.100201 0.218582,-0.203567 0.323889,-0.308874 0.105308,-0.105308 0.208675,-0.211524 0.308873,-0.321744 0.100201,-0.110219 0.196822,-0.223967 0.291714,-0.338902 0.0949,-0.114936 0.187309,-0.232316 0.276699,-0.351772 0.08939,-0.119457 0.175848,-0.240864 0.25954,-0.364644 0.0837,-0.123779 0.164582,-0.249605 0.242379,-0.377512 0.0778,-0.127906 0.153513,-0.258543 0.225222,-0.390381 0.0717,-0.131839 0.140495,-0.265534 0.205915,-0.401107 0.06542,-0.135573 0.127675,-0.27272 0.186611,-0.411831 0.05894,-0.139112 0.112905,-0.280103 0.165161,-0.422556 0.05225,-0.142453 0.102618,-0.285537 0.148003,-0.431136 0.04538,-0.145599 0.0861,-0.293313 0.124406,-0.441861 0.03831,-0.148548 0.07407,-0.29914 0.1051,-0.45044 0.03104,-0.151301 0.05793,-0.303019 0.08151,-0.456876 0.02356,-0.153857 0.04415,-0.309238 0.06006,-0.465454 0.01591,-0.156219 0.02627,-0.31351 0.03432,-0.471892 0.008,-0.158381 0.01287,-0.317975 0.01287,-0.478323 0,-0.16035 -0.0049,-0.319944 -0.01287,-0.478325 -0.008,-0.158382 -0.01841,-0.315673 -0.03432,-0.471892 -0.01591,-0.156216 -0.03648,-0.311598 -0.06006,-0.465455 -0.02358,-0.153857 -0.05048,-0.305574 -0.08151,-0.456876 -0.03103,-0.151299 -0.06679,-0.301891 -0.1051,-0.450439 -0.03831,-0.148549 -0.07903,-0.296262 -0.124406,-0.441862 -0.04538,-0.145598 -0.09574,-0.288682 -0.148003,-0.431135 -0.05225,-0.142454 -0.10622,-0.283445 -0.165161,-0.422556 -0.05894,-0.139135 -0.121192,-0.276283 -0.186611,-0.411855 -0.06542,-0.135573 -0.134209,-0.269269 -0.205915,-0.401107 -0.07171,-0.131838 -0.147423,-0.262475 -0.225222,-0.390382 -0.0778,-0.127901 -0.158686,-0.253726 -0.242379,-0.377506 C 23.488458,9.9694159 23.402001,9.8480099 23.31261,9.7285539 23.22322,9.6090974 23.130803,9.4917168 23.035911,9.3767809 22.941019,9.2618447 22.844395,9.1502425 22.744197,9.0400228 22.643999,8.9298031 22.540631,8.8214416 22.435324,8.7161346 22.330017,8.6108276 22.221656,8.507459 22.111435,8.4072611 22.001216,8.3070632 21.889614,8.2104397 21.774678,8.1155471 21.659742,8.0206548 21.542361,7.9282387 21.422905,7.838848 21.303449,7.7494574 21.182043,7.6630009 21.058262,7.5793085 20.934483,7.495616 20.808658,7.4147266 20.680751,7.3369286 20.552843,7.2591304 20.422208,7.1834155 20.290369,7.1117083 20.158531,7.040001 20.024835,6.9712127 19.889262,6.9057925 19.75369,6.8403725 19.616543,6.7781181 19.477431,6.7191815 19.33832,6.660245 19.197327,6.6062767 19.054874,6.5540199 18.912422,6.5017632 18.769337,6.4513986 18.623739,6.406018 18.47814,6.3606376 18.330426,6.3199186 18.181878,6.2816107 18.03333,6.2433027 17.882738,6.2075469 17.731438,6.1765081 17.580136,6.1454688 17.42842,6.1185738 17.274561,6.0949991 c -0.153857,-0.023573 -0.309237,-0.044146 -0.465454,-0.060059 -0.156218,-0.015912 -0.313509,-0.026265 -0.47189,-0.03432 -0.158382,-0.00805 -0.317977,-0.01287 -0.478325,-0.01287 -0.16035,0 -0.319943,0.00481 -0.478325,0.01287 -0.158382,0.00805 -0.315673,0.018408 -0.471891,0.03432 -0.156217,0.015912 -0.311597,0.036485 -0.465455,0.060059 -0.153857,0.023573 -0.305575,0.05047 -0.456875,0.081509 -0.151301,0.031038 -0.301893,0.066795 -0.45044,0.1051026 -0.148549,0.038308 -0.296263,0.079026 -0.441861,0.1244073 -0.1456,0.04538 -0.288683,0.095745 -0.431136,0.1480019 -0.142453,0.052257 -0.283445,0.1062251 -0.422556,0.1651616 -0.139112,0.058937 -0.276259,0.121191 -0.411832,0.186611 -0.135572,0.065419 -0.269268,0.1342085 -0.401106,0.2059158 -0.131839,0.071707 -0.262475,0.1474221 -0.390382,0.2252203 -0.127907,0.077798 -0.253732,0.1586874 -0.377512,0.2423799 -0.12378,0.083693 -0.245187,0.1701489 -0.364642,0.2595395 -0.119457,0.08939 -0.236837,0.1818068 -0.3517736,0.2766991 C 9.8281693,8.2104397 9.7144226,8.3070632 9.6042022,8.4072611 9.493983,8.507459 9.3877667,8.6108276 9.2824598,8.7161346 9.1771518,8.8214415 9.0737832,8.9298031 8.9735863,9.0400228 8.873385,9.1502425 8.776765,9.2618447 8.6818724,9.3767809 c -0.094897,0.1149359 -0.1873086,0.2323165 -0.276699,0.351773 -0.089395,0.119456 -0.1758476,0.240862 -0.2595406,0.3646421 -0.083695,0.12378 -0.164581,0.249605 -0.2423798,0.377512 -0.077798,0.127907 -0.1535127,0.258543 -0.22522,0.390381 -0.071707,0.131838 -0.1404955,0.265534 -0.2059156,0.401107 -0.065419,0.135573 -0.1276746,0.27272 -0.1866111,0.411832 -0.058937,0.139111 -0.1150499,0.280102 -0.1673065,0.422556 -0.052257,0.142453 -0.100477,0.285537 -0.1458569,0.431136 -0.04538,0.145599 -0.088244,0.293312 -0.1265524,0.441861 -0.038308,0.148548 -0.071919,0.299139 -0.1029578,0.450439 -0.031039,0.151302 -0.057934,0.303019 -0.081508,0.456876 -0.023575,0.153857 -0.044146,0.309238 -0.060058,0.465455 -0.015912,0.156218 -0.02841,0.313509 -0.036464,0.471891 -0.00805,0.158381 -0.01073,0.317975 -0.01073,0.478325 0,0.160348 0.00267,0.319943 0.01073,0.478324 0.00805,0.158382 0.020552,0.315672 0.036464,0.471891 0.015912,0.156217 0.036485,0.311597 0.060058,0.465454 0.023573,0.153857 0.05047,0.305575 0.081508,0.456877 0.031039,0.1513 0.06465,0.301892 0.1029578,0.45044 0.038308,0.148548 0.081172,0.296262 0.1265524,0.441861 0.04538,0.145598 0.0936,0.288683 0.1458569,0.431135 0.052257,0.142453 0.1083698,0.283445 0.1673065,0.422556 0.058937,0.139111 0.121191,0.276258 0.1866111,0.411832 0.065419,0.135572 0.1342084,0.269267 0.2059156,0.401107 0.037462,0.06888 0.078834,0.135953 0.1179725,0.203772 z"
       style="stroke-width:0.265864;fill:#ffffff"
       id="path9" />
    <path
       d="m 15.858892,3.3280077 c -0.206044,0 -0.412073,0.0068 -0.615603,0.017159 -0.203529,0.010368 -0.404116,0.024571 -0.604877,0.045045 -0.20076,0.020472 -0.400703,0.046891 -0.598442,0.077218 -0.19774,0.030328 -0.393253,0.065172 -0.587717,0.1051027 -0.194467,0.039931 -0.388202,0.083706 -0.579139,0.1329873 -0.190937,0.049281 -0.379112,0.104638 -0.566268,0.1630164 C 12.11969,3.9269141 11.934424,3.99007 11.751303,4.0572922 11.568181,4.1245142 11.387464,4.195975 11.208629,4.2717878 11.029794,4.3476008 10.85312,4.4278725 10.678825,4.5120227 10.50453,4.5961727 10.331392,4.6836177 10.161891,4.7758522 9.9923901,4.8680869 9.8265714,4.9653554 9.6621167,5.0654209 9.497662,5.1654861 9.334366,5.2687958 9.1752112,5.3764394 9.0160565,5.4840833 8.8590687,5.5939392 8.7054665,5.7089077 8.5518644,5.8238762 8.402822,5.94293 8.2550263,6.0649702 8.1072304,6.1870106 7.9613367,6.3136235 7.8195997,6.4424822 7.6778635,6.5713411 7.5389031,6.7038747 7.4034788,6.839299 7.2680545,6.9747233 7.135521,7.1115387 7.0066621,7.2532753 6.8778033,7.3950119 6.7533352,7.5409054 6.631295,7.6887012 6.5092547,7.8364969 6.390201,7.9876848 6.2752325,8.1412867 6.160264,8.2948885 6.0504081,8.4518771 5.9427645,8.6110318 5.8351208,8.7701865 5.7296666,8.9313372 5.6296011,9.0957917 5.5295354,9.2602462 5.4344115,9.4260651 5.3421771,9.5955662 5.2499426,9.7650669 5.1603527,9.9382059 5.0762027,10.1125 c -0.08415,0.174295 -0.1644224,0.350969 -0.2402351,0.529804 -0.075813,0.178835 -0.1472734,0.359552 -0.2144955,0.542674 -0.067222,0.183122 -0.1282327,0.368387 -0.1866111,0.555544 -0.058378,0.187156 -0.1137351,0.375331 -0.1630166,0.566268 -0.049281,0.190936 -0.093055,0.384672 -0.1329871,0.579137 -0.039932,0.194464 -0.074774,0.389979 -0.1051026,0.587719 -0.030328,0.197739 -0.056746,0.397681 -0.077218,0.598441 -0.020472,0.200762 -0.036826,0.403494 -0.047189,0.607024 -0.010368,0.203529 -0.015015,0.407412 -0.015015,0.613457 0,0.206044 0.00465,0.412072 0.015015,0.615601 0.010367,0.20353 0.026717,0.404117 0.047189,0.604878 0.020472,0.200761 0.046891,0.400703 0.077218,0.598443 0.030328,0.197738 0.065172,0.393253 0.1051026,0.587717 0.039931,0.194465 0.083706,0.388201 0.1329871,0.579138 0.049281,0.190936 0.1046382,0.379111 0.1630166,0.566267 0.058378,0.187157 0.1193891,0.372422 0.1866111,0.555544 0.067222,0.183122 0.1386829,0.363838 0.2144955,0.542673 0.075812,0.178836 0.1560849,0.355511 0.2402351,0.529804 0.08415,0.174295 0.1737399,0.347433 0.2659744,0.516935 0.092235,0.169501 0.1873583,0.335321 0.287424,0.499775 0.1000651,0.164454 0.2055197,0.32775 0.3131634,0.486904 0.1076438,0.159155 0.2174995,0.316144 0.332468,0.469745 0.00825,0.01102 0.017453,0.02118 0.025739,0.03218 l 0.5877177,-1.003838 c -0.021581,-0.03121 -0.04523,-0.06079 -0.066493,-0.09223 C 6.7241329,21.23709 6.6302204,21.09007 6.539062,20.940234 6.4479034,20.790398 6.3592561,20.637794 6.2752325,20.483359 6.1912089,20.328923 6.1116556,20.172419 6.0349976,20.013614 5.9583393,19.854807 5.8852744,19.693944 5.8162121,19.530998 5.7471498,19.368053 5.6822572,19.202369 5.6210213,19.035515 5.5597852,18.868659 5.5026041,18.699838 5.4494247,18.529304 5.3962455,18.358771 5.346315,18.186352 5.3014228,18.012371 5.2565308,17.838388 5.215535,17.664055 5.1791605,17.486856 5.142786,17.309657 5.112409,17.130804 5.0847824,16.950618 5.0571554,16.770431 5.0326464,16.588743 5.0139994,16.405799 4.9953514,16.222855 4.9826844,16.03787 4.9732454,15.8524 c -0.00944,-0.185469 -0.015015,-0.372066 -0.015015,-0.559832 0,-0.187767 0.00558,-0.374364 0.015015,-0.559833 0.00944,-0.185471 0.022106,-0.370455 0.040754,-0.553399 0.018648,-0.182944 0.043157,-0.364632 0.070784,-0.544819 0.027627,-0.180186 0.058003,-0.356896 0.094377,-0.534094 0.036374,-0.177199 0.077371,-0.353677 0.1222625,-0.527659 0.044892,-0.173982 0.094822,-0.346401 0.1480019,-0.516934 0.053179,-0.170533 0.1103602,-0.339355 0.1715963,-0.50621 0.061237,-0.166855 0.1261291,-0.332539 0.1951914,-0.495484 0.069062,-0.162946 0.142127,-0.323809 0.2187853,-0.482615 0.076658,-0.158806 0.1562111,-0.315309 0.2402347,-0.469745 C 6.3592561,9.9473399 6.4479034,9.7947359 6.539062,9.6449002 6.6302204,9.4950646 6.7241329,9.3480441 6.822196,9.2030394 6.9202592,9.0580347 7.0220422,8.9161369 7.1267796,8.7761933 7.231517,8.6362499 7.3394867,8.4990139 7.4506679,8.364362 7.5618489,8.2297101 7.6764662,8.0966752 7.7938607,7.9675453 7.9112547,7.8384155 8.0308362,7.7134107 8.1542132,7.5900332 8.2775902,7.4666559 8.4047407,7.3449303 8.5338701,7.2275358 8.6629995,7.1101414 8.7960354,6.9955242 8.9306866,6.884343 9.065339,6.7731618 9.2025744,6.6651922 9.342518,6.5604548 9.4824616,6.4557178 9.6243589,6.3560794 9.7693642,6.2580162 9.9143695,6.1599531 10.061389,6.0638958 10.211225,5.9727372 10.36106,5.8815786 10.513664,5.7950762 10.6681,5.7110527 c 0.154437,-0.084024 0.310939,-0.1657219 0.469746,-0.24238 0.158805,-0.076658 0.319669,-0.1497232 0.482615,-0.2187855 0.162945,-0.069062 0.32863,-0.1339548 0.495484,-0.1951908 0.166854,-0.061237 0.335676,-0.1184172 0.506209,-0.1715964 0.170533,-0.053179 0.342954,-0.1009645 0.516934,-0.1458569 0.173982,-0.044892 0.348315,-0.085888 0.525514,-0.1222624 0.1772,-0.036376 0.356053,-0.068897 0.536239,-0.096523 0.180187,-0.027627 0.361876,-0.049991 0.544819,-0.068638 0.182943,-0.018648 0.367928,-0.03346 0.553398,-0.0429 0.18547,-0.00944 0.372067,-0.015015 0.559834,-0.015015 0.187767,0 0.374363,0.00558 0.559833,0.015015 0.185469,0.00944 0.370454,0.024251 0.553399,0.0429 0.182943,0.018648 0.364632,0.041011 0.544818,0.068638 0.180186,0.027627 0.35904,0.060148 0.536239,0.096523 0.177198,0.036374 0.351532,0.077371 0.525513,0.1222624 0.173982,0.044892 0.346402,0.092677 0.516934,0.1458569 0.170534,0.053179 0.339356,0.1103604 0.50621,0.1715964 0.166855,0.061235 0.332539,0.1261287 0.495485,0.1951908 0.162946,0.069063 0.323809,0.1421275 0.482615,0.2187855 0.158805,0.076658 0.315309,0.1583563 0.469745,0.24238 0.154436,0.084023 0.30704,0.1705259 0.456875,0.2616845 0.149835,0.091159 0.296856,0.1872158 0.441861,0.285279 0.145004,0.098063 0.286902,0.1977012 0.426846,0.3024386 0.139944,0.104737 0.277179,0.212707 0.411832,0.3238882 0.134651,0.1111812 0.267686,0.2257984 0.396816,0.3431928 0.12913,0.1173945 0.254135,0.2391201 0.377512,0.3624974 0.123377,0.1233775 0.245103,0.2483823 0.362498,0.3775121 0.117393,0.1291299 0.232011,0.2621648 0.343193,0.3968167 0.111181,0.1346519 0.21915,0.2718879 0.323887,0.4118313 0.104737,0.1399436 0.204376,0.2818414 0.302439,0.4268461 0.09806,0.1450047 0.194121,0.2920252 0.285279,0.4418608 0.09116,0.1498357 0.177661,0.3024397 0.261684,0.4568758 0.08403,0.154436 0.165722,0.310939 0.24238,0.469745 0.07665,0.158806 0.149724,0.319669 0.218786,0.482615 0.06906,0.162945 0.133955,0.328629 0.19519,0.495484 0.06123,0.166855 0.118418,0.335677 0.171597,0.50621 0.05317,0.170533 0.10097,0.342952 0.145857,0.516934 0.04489,0.173982 0.08589,0.35046 0.122263,0.527659 0.03637,0.177198 0.06889,0.353908 0.09652,0.534094 0.02763,0.180187 0.04999,0.361875 0.06864,0.544819 0.01865,0.182944 0.03346,0.367928 0.04289,0.553399 0.0094,0.185469 0.01501,0.372066 0.01501,0.559833 0,0.187766 -0.0056,0.374363 -0.01501,0.559832 -0.0094,0.18547 -0.02425,0.370455 -0.04289,0.553399 -0.01865,0.182944 -0.04101,0.364632 -0.06864,0.544819 -0.02763,0.180186 -0.06015,0.359039 -0.09652,0.536238 -0.03637,0.177199 -0.07737,0.351532 -0.122263,0.525515 -0.04489,0.173981 -0.09268,0.3464 -0.145857,0.516933 -0.05317,0.170534 -0.11036,0.339355 -0.171597,0.506211 -0.06123,0.166854 -0.126127,0.332538 -0.19519,0.495483 -0.06907,0.162946 -0.142127,0.323809 -0.218786,0.482616 -0.07665,0.158805 -0.158356,0.315309 -0.24238,0.469745 -0.08402,0.154435 -0.170525,0.307039 -0.261684,0.456875 -0.09116,0.149836 -0.187216,0.296856 -0.285279,0.441861 -0.09806,0.145004 -0.197702,0.286901 -0.302439,0.426845 -0.104737,0.139944 -0.212706,0.277181 -0.323887,0.411832 -0.111182,0.134653 -0.2258,0.267687 -0.343193,0.396816 -0.117395,0.129131 -0.239121,0.25628 -0.362498,0.379657 -0.123377,0.123379 -0.248382,0.242959 -0.377512,0.360353 -0.12913,0.117394 -0.262165,0.232012 -0.396816,0.343193 -0.134653,0.111181 -0.271888,0.219151 -0.411832,0.323888 -0.139944,0.104737 -0.281842,0.20652 -0.426846,0.304583 -0.145005,0.09806 -0.292026,0.191977 -0.441861,0.283135 -0.149835,0.09116 -0.302439,0.179806 -0.456875,0.26383 -0.154436,0.08402 -0.31094,0.163577 -0.469745,0.240235 -0.158806,0.07665 -0.319669,0.149723 -0.482615,0.218785 -0.162946,0.06907 -0.32863,0.133955 -0.495485,0.19519 -0.166854,0.06123 -0.335676,0.118418 -0.50621,0.171597 -0.170532,0.05317 -0.342952,0.103111 -0.516934,0.148003 -0.173981,0.04489 -0.348315,0.08589 -0.525513,0.122261 -0.177199,0.03637 -0.356053,0.06675 -0.536239,0.09438 -0.180186,0.02763 -0.361875,0.05213 -0.544818,0.07078 -0.09003,0.0092 -0.181748,0.01234 -0.27241,0.0193 0.0117,0.08527 0.02765,0.170933 0.03003,0.255248 0.0036,0.128922 -0.0047,0.256585 -0.02145,0.381803 -0.01672,0.125217 -0.04183,0.247069 -0.07722,0.366787 -0.0073,0.02435 -0.01995,0.04671 -0.02788,0.07078 0.159193,-0.0099 0.318707,-0.02041 0.47618,-0.03646 0.200761,-0.02047 0.400703,-0.0469 0.598443,-0.07722 0.197739,-0.03033 0.393252,-0.06517 0.587717,-0.1051 0.194464,-0.03993 0.388201,-0.0837 0.579138,-0.132986 0.190937,-0.04928 0.379112,-0.102497 0.566268,-0.160873 0.187156,-0.05838 0.372421,-0.121532 0.555543,-0.188756 0.183123,-0.06722 0.36384,-0.138682 0.542674,-0.214495 0.178835,-0.07581 0.355509,-0.156085 0.529804,-0.240235 0.174295,-0.08415 0.347433,-0.17374 0.516934,-0.265975 0.169501,-0.09224 0.33532,-0.187357 0.499774,-0.287422 0.164455,-0.10007 0.327751,-0.203376 0.486905,-0.31102 0.159155,-0.107648 0.313999,-0.219643 0.467601,-0.334612 0.153601,-0.11497 0.30479,-0.234023 0.452585,-0.356064 0.147795,-0.122039 0.29369,-0.246507 0.435426,-0.375366 0.141736,-0.128858 0.278552,-0.261393 0.413975,-0.396817 0.135425,-0.135424 0.267959,-0.274384 0.396818,-0.416121 0.128858,-0.141737 0.255472,-0.28763 0.377513,-0.435426 0.122038,-0.147796 0.241093,-0.296839 0.356061,-0.450441 0.114969,-0.153601 0.224824,-0.31059 0.332469,-0.469744 0.107647,-0.159155 0.213098,-0.322451 0.313163,-0.486905 0.100069,-0.164454 0.195189,-0.330274 0.287425,-0.499775 0.09224,-0.169502 0.179678,-0.34264 0.263828,-0.516934 0.08415,-0.174294 0.164423,-0.350969 0.240235,-0.529805 0.07581,-0.178835 0.147273,-0.359551 0.214496,-0.542673 0.06722,-0.183122 0.130377,-0.368387 0.188756,-0.555544 0.05838,-0.187156 0.113735,-0.375331 0.163016,-0.566267 0.04928,-0.190937 0.09305,-0.384673 0.132988,-0.579138 0.03993,-0.194464 0.07477,-0.389979 0.105099,-0.587717 0.03034,-0.197739 0.05674,-0.397682 0.07722,-0.598443 0.02047,-0.200761 0.03468,-0.401348 0.04505,-0.604878 0.01032,-0.203529 0.01716,-0.409557 0.01716,-0.615601 0,-0.206045 -0.0068,-0.409928 -0.01716,-0.613457 -0.01032,-0.20353 -0.02456,-0.406262 -0.04505,-0.607024 -0.02047,-0.20076 -0.04689,-0.400702 -0.07722,-0.598441 -0.03034,-0.19774 -0.06517,-0.393254 -0.105099,-0.587719 -0.03993,-0.194464 -0.08371,-0.388201 -0.132988,-0.579137 C 27.396661,12.11585 27.341302,11.927676 27.282923,11.74052 27.224543,11.553355 27.161388,11.36809 27.094166,11.184968 27.026946,11.001846 26.955484,10.821129 26.87967,10.642294 26.80386,10.463459 26.723585,10.286785 26.639435,10.11249 26.555286,9.9382059 26.46784,9.7650669 26.375606,9.5955662 26.283372,9.4260651 26.188248,9.2602462 26.088183,9.0957917 25.988117,8.9313372 25.882662,8.7701865 25.775019,8.6110318 25.667375,8.4518771 25.557519,8.2948885 25.44255,8.1412867 25.327582,7.9876848 25.208528,7.8364969 25.086489,7.6887012 24.964448,7.5409054 24.837835,7.3950119 24.708977,7.2532753 24.580117,7.1115387 24.447583,6.9747233 24.312159,6.839299 24.176736,6.7038747 24.03992,6.5713411 23.898183,6.4424822 23.756447,6.3136235 23.610553,6.1870106 23.462757,6.0649702 23.314961,5.94293 23.163773,5.8238762 23.010172,5.7089077 22.85657,5.5939392 22.701726,5.4840832 22.542571,5.3764396 22.383416,5.2687961 22.220122,5.1654867 22.055667,5.0654212 21.891212,4.9653556 21.725393,4.8680868 21.555893,4.7758522 21.386391,4.6836178 21.213253,4.5961729 21.038958,4.5120229 20.864664,4.4278726 20.687989,4.3476006 20.509154,4.2717879 20.33032,4.1959752 20.149602,4.1245145 19.96648,4.0572924 19.783358,3.9900702 19.598093,3.9269147 19.410937,3.8685364 19.223782,3.8101579 19.035606,3.7548012 18.84467,3.7055198 18.653732,3.6562383 18.459996,3.612464 18.265531,3.5725325 18.071067,3.532601 17.875553,3.497758 17.677813,3.4674297 17.480075,3.4371014 17.280132,3.4106834 17.079371,3.3902113 16.878611,3.3697395 16.675878,3.3555296 16.472349,3.3451669 16.26882,3.3347997 16.064936,3.3280073 15.858892,3.3280077 Z"
       style="stroke-width:0.265864;fill:#ffffff"
       id="path8" />
    <path
       d="m 17.37323,14.522529 -2.286522,2.286522 4.201967,1.939039 z"
       style="stroke-width:0.533018;fill:#ffffff"
       id="path12" />
    <path
       d="m 12.429109,11.862785 1.941184,4.201967 2.286522,-2.286523 z"
       style="stroke-width:0.533018;fill:#ffffff"
       id="path11" />
  </g>
</svg>
